<svg width="96" height="34" viewBox="0 0 96 34" fill="none" xmlns="http://www.w3.org/2000/svg">
<g clip-path="url(#clip0_29_187)">
<path d="M11.2626 4.25H0.896118V29.0417L11.2626 4.25Z" fill="#71717A"/>
<path d="M18.5563 4.25H28.9092V29.0417L18.5563 4.25Z" fill="#71717A"/>
<path d="M14.9092 13.3875L21.5073 29.0418H17.1783L15.2064 24.0578H10.3777L14.9092 13.3875Z" fill="#71717A"/>
<path d="M45.8217 20.0146L47.044 23.5196C47.0846 23.6074 47.1453 23.6479 47.2534 23.6479H49.6036C49.7319 23.6479 49.7521 23.5871 49.7319 23.4588L44.8762 9.97231C44.8559 9.86425 44.8357 9.84399 44.7276 9.84399H41.8102C41.7291 9.84399 41.6818 9.90477 41.6818 9.99257C41.6413 10.7017 41.5806 10.9178 41.4928 11.1271L37.1638 23.4386C37.1436 23.5871 37.1909 23.6479 37.3124 23.6479H39.4127C39.541 23.6479 39.6018 23.6074 39.6491 23.4791L40.8039 20.0146H45.8217ZM41.4725 17.7252C42.1073 15.8072 42.9447 13.349 43.2824 11.9443H43.3027C43.7214 13.4165 44.7074 16.334 45.1531 17.7252H41.4725Z" fill="#71717A"/>
<path d="M55.9743 23.8566C57.2372 23.8566 58.5811 23.627 59.9453 23.0394C60.0534 22.9989 60.0736 22.9516 60.0736 22.8503C60.0331 22.4721 59.9858 21.9251 59.9858 21.5064V8.81004C59.9858 8.729 59.9858 8.68848 59.8846 8.68848H57.5952C57.5074 8.68848 57.4668 8.729 57.4668 8.83705V13.139C57.1089 13.0984 56.859 13.0782 56.5619 13.0782C52.8678 13.0782 50.5986 15.5161 50.5986 18.5619C50.5986 22.0939 52.9286 23.8566 55.9743 23.8566ZM57.4668 21.5064C57.0886 21.628 56.6699 21.6752 56.2445 21.6752C54.5696 21.6752 53.1987 20.7298 53.1987 18.4336C53.1987 16.4008 54.6101 15.1987 56.4808 15.1987C56.859 15.1987 57.1899 15.2393 57.4668 15.3473V21.5064Z" fill="#71717A"/>
<path d="M67.3757 13.0793C64.2219 13.0793 62.2701 15.4971 62.2701 18.4821C62.2701 21.1496 63.8234 23.8577 67.3284 23.8577C70.2932 23.8577 72.3732 21.6764 72.3732 18.4145C72.3732 15.5376 70.6106 13.0793 67.3757 13.0793ZM67.2474 15.1999C69.0303 15.1999 69.7867 16.7329 69.7867 18.4821C69.7867 20.6431 68.6723 21.7169 67.3757 21.7169C65.7751 21.7169 64.8297 20.373 64.8297 18.4348C64.8297 16.4425 65.8359 15.1999 67.2474 15.1999Z" fill="#71717A"/>
<path d="M74.7411 8.68848C74.6533 8.68848 74.5925 8.729 74.5925 8.83705V23.2082C74.5925 23.269 74.6533 23.3771 74.7411 23.3973C75.7474 23.708 76.8009 23.8566 77.8882 23.8566C81.0015 23.8566 84.027 21.9251 84.027 18.0352C84.027 15.219 82.0955 13.0782 79.07 13.0782C78.3744 13.0782 77.7261 13.1862 77.1588 13.3753L77.1318 8.85731C77.1318 8.70874 77.0913 8.68848 76.9427 8.68848H74.7411ZM81.4404 18.2918C81.4404 20.6217 79.8467 21.7157 78.1245 21.7157C77.7666 21.7157 77.4492 21.6955 77.1588 21.6077V15.4756C77.4897 15.3473 77.8882 15.2393 78.6243 15.2393C80.2856 15.2393 81.4404 16.2928 81.4404 18.2918Z" fill="#71717A"/>
<path d="M92.5711 19.0493C93.5976 19.0493 94.4418 19.0291 94.7321 18.9615C94.8402 18.9413 94.8807 18.9008 94.901 18.813C94.9618 18.5834 94.9888 18.1039 94.9888 17.5163C94.9888 15.5173 93.7867 13.0793 90.6801 13.0793C87.506 13.0793 85.7434 15.6659 85.7434 18.5834C85.7434 21.1699 87.1076 23.8577 90.93 23.8577C92.3617 23.8577 93.2869 23.6281 94.0838 23.2499C94.1649 23.2094 94.2054 23.1419 94.2054 23.0203V21.2712C94.2054 21.1699 94.1446 21.1496 94.0838 21.1902C93.2869 21.5278 92.4225 21.6967 91.477 21.6967C89.3362 21.6967 88.3637 20.5148 88.3029 19.0493H92.5711ZM88.3029 17.2394C88.4718 16.2129 89.1201 15.0986 90.5721 15.0986C92.1726 15.0986 92.5913 16.4425 92.5913 17.0503C92.5913 17.0706 92.5913 17.1584 92.5913 17.2192C92.5035 17.2394 92.2334 17.2394 91.4365 17.2394H88.3029Z" fill="#71717A"/>
</g>
<defs>
<clipPath id="clip0_29_187">
<rect width="94.2083" height="34" fill="white" transform="translate(0.895752)"/>
</clipPath>
</defs>
</svg>
