<svg width="201" height="45" viewBox="0 0 201 45" fill="none" xmlns="http://www.w3.org/2000/svg">
<g clip-path="url(#clip0_9_390)">
<mask id="mask0_9_390" style="mask-type:luminance" maskUnits="userSpaceOnUse" x="0" y="0" width="201" height="45">
<path d="M200.856 0H0V44.1216H200.856V0Z" fill="white"/>
</mask>
<g mask="url(#mask0_9_390)">
<path d="M33.3968 7.99391L19.7386 0.105811C19.6176 0.0367882 19.4807 0.000488283 19.3413 0.000488281C19.2019 0.000488283 19.0651 0.0367882 18.9441 0.105811L12.648 3.75012L10.2681 5.11673C10.1474 5.18648 10.0471 5.28676 9.97746 5.40749C9.90778 5.52823 9.87109 5.66518 9.87109 5.80459C9.87109 5.94399 9.90778 6.08094 9.97746 6.20168C10.0471 6.32241 10.1474 6.4227 10.2681 6.49246L12.6371 7.86636L15.7933 9.68851L23.1153 13.925L25.8105 15.4884L25.8889 15.534C26.1329 15.675 26.4097 15.7493 26.6916 15.7493C26.9735 15.7493 27.2503 15.675 27.4943 15.534L29.8305 14.1838L30.2405 13.9469L30.2569 13.9359L33.3968 12.1247L35.7749 10.7508C35.8957 10.6813 35.9959 10.5812 36.0657 10.4606C36.1353 10.34 36.1721 10.2032 36.1721 10.0639C36.1721 9.92455 36.1353 9.7877 36.0657 9.6671C35.9959 9.54651 35.8957 9.44642 35.7749 9.37692L33.3968 7.99391ZM26.2898 11.6382L17.4024 6.4961C17.2817 6.42635 17.1815 6.32606 17.1118 6.20532C17.0421 6.08458 17.0054 5.94763 17.0054 5.80824C17.0054 5.66882 17.0421 5.53187 17.1118 5.41114C17.1815 5.2904 17.2817 5.19013 17.4024 5.12038L18.9532 4.22934C19.0738 4.15943 19.2109 4.12262 19.3504 4.12262C19.49 4.12262 19.6271 4.15943 19.7477 4.22934L28.6442 9.36781C28.7648 9.43756 28.865 9.53783 28.9348 9.65857C29.0045 9.7793 29.0411 9.91626 29.0411 10.0557C29.0411 10.1951 29.0045 10.332 28.9348 10.4528C28.865 10.5735 28.7648 10.6738 28.6442 10.7435L27.0971 11.6364C26.9755 11.7077 26.837 11.7452 26.6961 11.7452C26.5553 11.7452 26.4168 11.7077 26.2952 11.6364L26.2898 11.6382Z" fill="#FF4200"/>
<path d="M35.3363 23.3746C35.1904 23.3755 35.0471 23.4145 34.9208 23.4875L32.6047 24.8305L19.834 32.3614C19.6838 32.4483 19.5136 32.4941 19.3401 32.4941C19.1667 32.4941 18.9965 32.4483 18.8463 32.3614L10.697 27.6603C10.5755 27.5901 10.4746 27.4892 10.4045 27.3676C10.3345 27.2461 10.2977 27.1082 10.2979 26.9678V17.4471C10.2993 17.3084 10.3368 17.1724 10.4068 17.0525C10.4768 16.9327 10.5768 16.8332 10.697 16.7638L12.0272 15.9931L17.0131 13.1195C17.1206 13.0577 17.2099 12.9687 17.272 12.8613C17.3341 12.754 17.3668 12.6322 17.3668 12.5082C17.3668 12.3842 17.3341 12.2624 17.272 12.1551C17.2099 12.0477 17.1206 11.9587 17.0131 11.8969L14.8591 10.6414C14.7522 10.5788 14.6304 10.5458 14.5065 10.5458C14.3826 10.5458 14.2608 10.5788 14.1539 10.6414L8.4282 13.9486L7.08151 14.7212C6.97424 14.7838 6.88527 14.8734 6.82355 14.9812C6.76183 15.089 6.7295 15.2111 6.72981 15.3353V29.0323C6.72968 29.1721 6.76653 29.3095 6.83661 29.4305C6.9067 29.5515 7.00755 29.6517 7.12889 29.7211L14.5785 34.0214C14.6992 34.0912 14.7994 34.1914 14.8691 34.3122C14.9388 34.433 14.9755 34.5699 14.9755 34.7093C14.9755 34.8486 14.9388 34.9857 14.8691 35.1063C14.7994 35.2271 14.6992 35.3273 14.5785 35.3971L13.0131 36.3082C12.8917 36.3782 12.7541 36.4148 12.614 36.4148C12.474 36.4148 12.3363 36.3782 12.2149 36.3082L3.98542 31.5542L3.96902 31.5433C3.8478 31.4737 3.74706 31.3734 3.677 31.2525C3.60693 31.1316 3.56999 30.9943 3.56994 30.8545V13.5641C3.56981 13.4243 3.60666 13.287 3.67674 13.166C3.74683 13.045 3.84767 12.9448 3.96902 12.8754L3.98542 12.8644L5.24281 12.1356L10.1011 9.33491H10.112C10.2371 9.26117 10.3407 9.15607 10.4127 9.03C10.4848 8.90394 10.5226 8.76126 10.5226 8.61608C10.5226 8.4709 10.4848 8.32823 10.4127 8.20217C10.3407 8.0761 10.2371 7.971 10.112 7.89724L8.20041 6.78937C8.07296 6.71685 7.92885 6.67871 7.78219 6.67871C7.63555 6.67871 7.49142 6.71685 7.36397 6.78937L1.64012 10.0929L0.390025 10.8218C0.271817 10.8917 0.173756 10.9911 0.105408 11.1102C0.0370608 11.2293 0.000761307 11.3641 5.16933e-05 11.5015V32.8917C-0.00159691 33.0393 0.0362147 33.1847 0.109578 33.3129C0.182942 33.441 0.289197 33.5473 0.417359 33.6205L9.04231 38.5932L12.6104 40.654L17.9916 43.7517C18.4018 43.988 18.8667 44.1125 19.3401 44.1125C19.8136 44.1125 20.2785 43.988 20.6887 43.7517L35.7573 34.896C35.885 34.8222 35.9907 34.7158 36.0641 34.5877C36.1374 34.4598 36.1755 34.3148 36.1746 34.1672V24.2128C36.1748 24.1027 36.1533 23.9935 36.1113 23.8917C36.0692 23.79 36.0075 23.6975 35.9297 23.6196C35.8517 23.5417 35.7593 23.4799 35.6574 23.438C35.5555 23.3959 35.4466 23.3744 35.3363 23.3746ZM32.6029 32.1446C32.6029 32.2843 32.5659 32.4217 32.4959 32.5425C32.4257 32.6635 32.325 32.7637 32.2038 32.8333L32.1856 32.8443L19.7374 40.1894C19.6157 40.2584 19.4783 40.2947 19.3383 40.2947C19.1984 40.2947 19.061 40.2584 18.9392 40.1894L17.3721 39.2783C17.2509 39.2087 17.1503 39.1083 17.0803 38.9875C17.0103 38.8665 16.9735 38.7293 16.9735 38.5895C16.9735 38.4498 17.0103 38.3126 17.0803 38.1917C17.1503 38.0708 17.2509 37.9704 17.3721 37.9007L19.3383 36.7674L29.443 30.7707L31.4093 29.6337C31.5303 29.564 31.6675 29.5274 31.8071 29.5276C31.9467 29.5276 32.0837 29.5644 32.2045 29.6342C32.3255 29.7038 32.4259 29.8042 32.4959 29.925C32.5657 30.0458 32.6027 30.1828 32.6029 30.3224V32.1446Z" fill="white"/>
<path d="M58.0162 25.7672H49.7047C48.9589 25.7712 48.2201 25.6218 47.5344 25.328C46.188 24.755 45.1149 23.6845 44.5385 22.3397C44.2406 21.6495 44.0891 20.905 44.0939 20.1531V14.202C44.0898 13.4538 44.2411 12.7129 44.5385 12.0263C45.1149 10.6816 46.188 9.61112 47.5344 9.03802C48.2186 8.73926 48.9581 8.58777 49.7047 8.59342H58.0162C58.7681 8.58775 59.5131 8.73919 60.203 9.03802C61.5442 9.61666 62.6139 10.6856 63.1934 12.0263C63.4822 12.7126 63.6291 13.4502 63.6253 14.1947H59.773C59.7773 13.9653 59.7343 13.7375 59.6465 13.5255C59.5586 13.3136 59.428 13.122 59.2627 12.9629C59.1011 12.7994 58.9079 12.6703 58.6949 12.5836C58.4819 12.4968 58.2535 12.4542 58.0235 12.4582H49.7047C49.4748 12.454 49.2462 12.4965 49.0332 12.5833C48.8202 12.67 48.6272 12.7992 48.4656 12.9629C48.3001 13.122 48.1691 13.3134 48.0811 13.5254C47.9929 13.7373 47.9495 13.9652 47.9535 14.1947V20.1513C47.953 20.3815 47.998 20.6094 48.0858 20.8221C48.1736 21.0347 48.3026 21.2278 48.4654 21.3906C48.6281 21.5533 48.8213 21.6823 49.0339 21.7701C49.2466 21.8579 49.4746 21.9029 49.7047 21.9024H58.0162C58.2462 21.9029 58.4742 21.8579 58.6867 21.7701C58.8993 21.6823 59.0925 21.5533 59.2551 21.3906C59.4176 21.2278 59.5464 21.0345 59.6341 20.8219C59.7216 20.6092 59.7664 20.3813 59.7657 20.1513H63.6253C63.6308 20.9019 63.4839 21.6458 63.1934 22.3379C62.613 23.6803 61.5411 24.7501 60.1975 25.328C59.5078 25.621 58.7656 25.7705 58.0162 25.7672Z" fill="white"/>
<path d="M80.0953 25.7672H71.7856C71.0385 25.7717 70.2985 25.6221 69.6116 25.3281C68.2635 24.753 67.1902 23.6788 66.6158 22.3306C66.3253 21.6449 66.1782 20.907 66.1839 20.1623V14.202C66.1762 13.4556 66.32 12.7155 66.6067 12.0263C67.1847 10.6796 68.2617 9.6087 69.6116 9.03801C70.3017 8.73943 71.0465 8.58801 71.7984 8.5934H80.1081C80.8545 8.58923 81.5938 8.74065 82.2785 9.03801C83.6202 9.61333 84.6886 10.6836 85.2616 12.0263C85.5588 12.7104 85.7102 13.4489 85.7062 14.1947V20.1513C85.712 20.8973 85.5606 21.6362 85.2616 22.3197C84.6896 23.6721 83.6159 24.7504 82.2657 25.3281C81.5803 25.6227 80.8414 25.7723 80.0953 25.7672ZM80.0953 21.9097C80.3251 21.9137 80.5533 21.8703 80.7656 21.7823C80.9779 21.6941 81.1698 21.5633 81.329 21.3977C81.4929 21.236 81.6221 21.0431 81.7088 20.8301C81.7956 20.6171 81.838 20.3886 81.8338 20.1586V14.202C81.838 13.9723 81.7956 13.7442 81.7086 13.5315C81.6219 13.3187 81.4927 13.1259 81.329 12.9647C81.1698 12.7992 80.9779 12.6682 80.7656 12.5801C80.5533 12.492 80.3251 12.4487 80.0953 12.4527H71.7856C71.5557 12.4522 71.3279 12.4972 71.1154 12.5849C70.9027 12.6726 70.7096 12.8014 70.5468 12.9639C70.3843 13.1264 70.2553 13.3194 70.1673 13.5319C70.0794 13.7443 70.0342 13.972 70.0344 14.202V20.1586C70.0339 20.3887 70.0789 20.6167 70.1667 20.8293C70.2545 21.042 70.3836 21.2351 70.5463 21.3979C70.709 21.5606 70.9022 21.6896 71.1149 21.7774C71.3277 21.8652 71.5555 21.9102 71.7856 21.9097H80.0953Z" fill="white"/>
<path d="M99.3169 25.7672H88.3594V8.59343H99.3169C100.465 8.58621 101.603 8.81702 102.657 9.27127C104.715 10.1487 106.352 11.7893 107.226 13.8485C107.673 14.9033 107.904 16.0373 107.904 17.183C107.904 18.3288 107.673 19.4627 107.226 20.5176C106.345 22.5733 104.706 24.2111 102.65 25.0912C101.597 25.5438 100.463 25.7739 99.3169 25.7672ZM99.3169 21.9097C100.151 21.9161 100.97 21.6936 101.686 21.2665C102.393 20.8481 102.983 20.2568 103.399 19.5482C103.818 18.8292 104.039 18.0118 104.039 17.1794C104.039 16.347 103.818 15.5296 103.399 14.8106C102.98 14.1046 102.391 13.5151 101.686 13.096C100.97 12.6688 100.151 12.4464 99.3169 12.4527H92.219V21.9097H99.3169Z" fill="white"/>
<path d="M130.073 8.59326H114.332V12.4526H130.073V8.59326Z" fill="white"/>
<path d="M114.34 19.1109V21.9079H130.026V25.7672H112.558C112.007 25.7672 111.479 25.5484 111.089 25.1588C110.699 24.7692 110.48 24.2408 110.48 23.69V17.2833C110.481 16.7448 110.695 16.2285 111.076 15.8478C111.457 15.4672 111.974 15.2534 112.512 15.2534H130.072V19.1109H114.34Z" fill="white"/>
<path d="M178.698 8.59326H162.957V12.4526H178.698V8.59326Z" fill="white"/>
<path d="M162.967 19.1109V21.9079H178.654V25.7672H161.185C160.912 25.7672 160.642 25.7135 160.39 25.6089C160.138 25.5043 159.909 25.3512 159.716 25.1581C159.523 24.9649 159.371 24.7357 159.266 24.4835C159.162 24.2313 159.109 23.9609 159.109 23.6882V17.2833C159.109 16.7449 159.323 16.2286 159.704 15.8479C160.085 15.4673 160.601 15.2534 161.139 15.2534H178.699V19.1109H162.967Z" fill="white"/>
<path d="M195.249 25.7671H186.937C186.192 25.7717 185.454 25.6248 184.767 25.3353C183.415 24.7659 182.341 23.6908 181.771 22.3397C181.474 21.6493 181.323 20.9047 181.328 20.1531V14.202C181.324 13.4539 181.474 12.713 181.771 12.0263C182.345 10.6788 183.418 9.60551 184.767 9.0307C185.452 8.73367 186.19 8.58226 186.937 8.58609H195.249C195.996 8.58044 196.734 8.73192 197.419 9.0307C198.766 9.60551 199.841 10.6788 200.415 12.0263C200.71 12.7108 200.862 13.4491 200.858 14.1947H196.993C196.996 13.9652 196.953 13.7373 196.865 13.5253C196.778 13.3134 196.647 13.1219 196.481 12.9629C196.319 12.7992 196.125 12.67 195.912 12.5832C195.701 12.4964 195.471 12.4539 195.242 12.4582H186.93C186.7 12.4541 186.471 12.4968 186.259 12.5835C186.046 12.6703 185.853 12.7993 185.691 12.9629C185.525 13.1219 185.394 13.3134 185.306 13.5253C185.219 13.7373 185.175 13.9652 185.179 14.1947V20.1513C185.179 20.3814 185.223 20.6094 185.312 20.822C185.399 21.0347 185.529 21.2278 185.691 21.3905C185.853 21.5532 186.046 21.6823 186.259 21.7701C186.473 21.8579 186.7 21.9029 186.93 21.9024H195.242C195.471 21.9029 195.699 21.8579 195.912 21.7701C196.125 21.6823 196.319 21.5532 196.481 21.3905C196.643 21.2278 196.772 21.0347 196.86 20.822C196.949 20.6094 196.993 20.3814 196.993 20.1513V19.7559H191.085V15.9038H200.851V20.1586C200.856 20.9102 200.705 21.6547 200.408 22.3451C199.832 23.6864 198.762 24.7548 197.419 25.328C196.734 25.6217 195.994 25.7712 195.249 25.7671Z" fill="white"/>
<path d="M155.988 8.69688C155.85 8.61295 155.689 8.57117 155.527 8.57662H153.55C153.442 8.5789 153.337 8.61106 153.246 8.66957L144.55 14.5314L135.963 8.67868C135.872 8.61322 135.762 8.57758 135.65 8.57662H133.59C133.55 8.57212 133.51 8.57212 133.47 8.57662C133.252 8.60289 133.052 8.70956 132.909 8.87574C132.766 9.04192 132.69 9.25562 132.696 9.47494V25.2348C132.696 25.3798 132.753 25.5188 132.856 25.6212C132.958 25.7238 133.097 25.7814 133.242 25.7814H135.919C136.064 25.779 136.201 25.7207 136.303 25.6187C136.405 25.5166 136.464 25.3789 136.466 25.2348V13.6076L153.375 25.6921C153.47 25.7499 153.578 25.7819 153.689 25.785H155.471C155.536 25.7829 155.601 25.7761 155.666 25.765C155.691 25.7645 155.716 25.7581 155.739 25.7468C155.963 25.6879 156.162 25.5565 156.304 25.3731C156.446 25.1894 156.524 24.964 156.524 24.7318V9.57333C156.525 9.39196 156.475 9.21393 156.38 9.05916C156.286 8.9044 156.15 8.77897 155.988 8.69688ZM152.73 20.1072L147.919 16.8273L152.73 13.5875V20.1072Z" fill="white"/>
<path d="M45.3242 36.4139L46.1297 35.2678C46.4116 35.5643 46.7507 35.8006 47.1267 35.9622C47.5024 36.1237 47.9073 36.2075 48.3164 36.208C49.1328 36.208 49.5155 35.8436 49.5155 35.4427C49.5155 34.2456 45.5484 35.0783 45.5484 32.489C45.5484 31.3429 46.5397 30.3936 48.1615 30.3936C49.2549 30.3936 50.1661 30.7234 50.8476 31.3538L50.0312 32.4471C49.4809 31.9537 48.7656 31.6845 48.0267 31.6927C47.4071 31.6927 47.0572 31.9606 47.0572 32.3742C47.0572 33.4584 51.0116 32.7259 51.0116 35.2897C51.0116 36.5488 50.1005 37.4999 48.2545 37.4999C46.9242 37.5091 45.9748 37.0644 45.3242 36.4139Z" fill="white"/>
<path d="M52.5938 33.9465C52.5938 31.8692 54.1117 30.3823 56.1964 30.3823C58.2812 30.3823 59.7918 31.8692 59.7918 33.9465C59.7918 36.0237 58.272 37.5088 56.1964 37.5088C54.1208 37.5088 52.5938 36.0219 52.5938 33.9465ZM58.283 33.9465C58.283 32.6545 57.4666 31.6833 56.1964 31.6833C54.9263 31.6833 54.1008 32.6545 54.1008 33.9465C54.1008 35.2384 54.9172 36.2077 56.1964 36.2077C57.4757 36.2077 58.283 35.2256 58.283 33.9465Z" fill="white"/>
<path d="M61.7539 37.3853V30.4976H66.6267V31.7876H63.219V33.2326H66.5557V34.5245H63.219V37.3853H61.7539Z" fill="white"/>
<path d="M70.1678 37.3853V31.7876H68.1523V30.4976H73.6466V31.7876H71.6421V37.3853H70.1678Z" fill="white"/>
<path d="M78.6289 36.4139L79.4344 35.2678C79.7163 35.5643 80.0554 35.8006 80.4313 35.9622C80.8071 36.1237 81.212 36.2075 81.6211 36.208C82.4375 36.208 82.8202 35.8436 82.8202 35.4427C82.8202 34.2456 78.8549 35.0783 78.8549 32.489C78.8549 31.3429 79.8462 30.3936 81.4662 30.3936C82.5596 30.3936 83.4708 30.7234 84.1523 31.3538L83.3359 32.4471C82.7858 31.9535 82.0705 31.6844 81.3314 31.6927C80.7118 31.6927 80.3601 31.9606 80.3601 32.3742C80.3601 33.4584 84.3163 32.7259 84.3163 35.2897C84.3163 36.5488 83.4052 37.4999 81.5573 37.4999C80.2289 37.5091 79.2795 37.0644 78.6289 36.4139Z" fill="white"/>
<path d="M85.8984 33.9465C85.8984 31.8692 87.4164 30.3823 89.503 30.3823C91.5895 30.3823 93.0965 31.8692 93.0965 33.9465C93.0965 36.0237 91.5786 37.5088 89.503 37.5088C87.4273 37.5088 85.8984 36.0219 85.8984 33.9465ZM91.5877 33.9465C91.5877 32.6545 90.7731 31.6833 89.503 31.6833C88.2328 31.6833 87.4055 32.6545 87.4055 33.9465C87.4055 35.2384 88.2219 36.2077 89.503 36.2077C90.784 36.2077 91.5877 35.2256 91.5877 33.9465Z" fill="white"/>
<path d="M95 37.3853V30.4976H96.4761V36.0934H99.3917V37.3853H95Z" fill="white"/>
<path d="M101.062 34.6211V30.4976H102.549V34.5865C102.549 35.5467 103.107 36.2082 104.17 36.2082C105.232 36.2082 105.782 35.5467 105.782 34.5865V30.4976H107.278V34.6211C107.278 36.3248 106.267 37.5019 104.17 37.5019C102.072 37.5019 101.062 36.3321 101.062 34.6211Z" fill="white"/>
<path d="M111.161 37.3853V31.7876H109.156V30.4976H114.641V31.7876H112.637V37.3853H111.161Z" fill="white"/>
<path d="M116.512 37.3853V30.4976H117.97V37.3853H116.512Z" fill="white"/>
<path d="M119.941 33.9465C119.941 31.8692 121.459 30.3823 123.544 30.3823C125.629 30.3823 127.14 31.8692 127.14 33.9465C127.14 36.0237 125.62 37.5088 123.544 37.5088C121.468 37.5088 119.941 36.0219 119.941 33.9465ZM125.631 33.9465C125.631 32.6545 124.814 31.6833 123.544 31.6833C122.274 31.6833 121.448 32.6545 121.448 33.9465C121.448 35.2384 122.265 36.2077 123.544 36.2077C124.823 36.2077 125.631 35.2256 125.631 33.9465Z" fill="white"/>
<path d="M133.851 37.3853L130.571 32.8919V37.3853H129.113V30.4976H130.62L133.811 34.8233V30.4976H135.269V37.3853H133.851Z" fill="white"/>
<path d="M137.082 36.4139L137.887 35.2678C138.17 35.5639 138.509 35.8001 138.885 35.9615C139.261 36.1231 139.665 36.2069 140.074 36.208C140.891 36.208 141.272 35.8436 141.272 35.4427C141.272 34.2456 137.306 35.0783 137.306 32.489C137.306 31.3429 138.298 30.3936 139.919 30.3936C141.013 30.3936 141.924 30.7234 142.604 31.3538L141.789 32.4471C141.239 31.9537 140.523 31.6845 139.785 31.6927C139.165 31.6927 138.815 31.9606 138.815 32.3742C138.815 33.4584 142.769 32.7259 142.769 35.2897C142.769 36.5488 141.858 37.4999 140.012 37.4999C138.677 37.5091 137.733 37.0644 137.082 36.4139Z" fill="white"/>
<path d="M148.27 37.3853V30.4976H151.491C152.989 30.4976 153.806 31.5089 153.806 32.7169C153.806 33.925 152.978 34.9272 151.491 34.9272H149.736V37.3853H148.27ZM152.308 32.7169C152.308 32.1393 151.863 31.7876 151.285 31.7876H149.736V33.6371H151.285C151.863 33.6371 152.308 33.2855 152.308 32.7169Z" fill="white"/>
<path d="M157.583 37.3853L154.93 30.4976H156.592L158.503 35.7818L160.413 30.4976H162.075L159.422 37.3853H157.583Z" fill="white"/>
<path d="M165.239 37.3853V31.7876H163.234V30.4976H168.727V31.7876H166.722V37.3853H165.239Z" fill="white"/>
<path d="M169.387 36.6616C169.387 36.4961 169.436 36.3345 169.528 36.1969C169.62 36.0594 169.75 35.9522 169.903 35.8888C170.056 35.8256 170.224 35.809 170.386 35.8413C170.549 35.8735 170.698 35.9531 170.815 36.0701C170.932 36.1871 171.011 36.3361 171.044 36.4983C171.076 36.6607 171.059 36.8289 170.996 36.9816C170.933 37.1344 170.825 37.2651 170.688 37.3569C170.55 37.4489 170.389 37.4979 170.223 37.4979C170.002 37.495 169.791 37.4061 169.635 37.2498C169.479 37.0936 169.39 36.8824 169.387 36.6616Z" fill="white"/>
<path d="M176.691 37.3853V30.4976H178.167V36.0934H181.083V37.3853H176.691Z" fill="white"/>
<path d="M183.559 37.3853V31.7876H181.555V30.4976H187.047V31.7876H185.043V37.3853H183.559Z" fill="white"/>
<path d="M188.906 37.3853V30.4976H191.623C193.781 30.4976 195.279 31.8696 195.279 33.936C195.279 36.0023 193.781 37.3853 191.634 37.3853H188.906ZM193.781 33.936C193.781 32.7279 193.037 31.7876 191.632 31.7876H190.373V36.0934H191.623C192.981 36.0934 193.781 35.1131 193.781 33.936Z" fill="white"/>
<path d="M196.809 36.6616C196.809 36.4961 196.858 36.3345 196.949 36.1969C197.042 36.0594 197.171 35.9522 197.324 35.8888C197.477 35.8256 197.647 35.809 197.809 35.8413C197.971 35.8735 198.119 35.9531 198.237 36.0701C198.354 36.1871 198.432 36.3361 198.465 36.4983C198.498 36.6607 198.481 36.8289 198.418 36.9816C198.354 37.1344 198.246 37.2651 198.11 37.3569C197.973 37.4489 197.811 37.4979 197.645 37.4979C197.425 37.495 197.213 37.4061 197.056 37.2498C196.9 37.0936 196.812 36.8824 196.809 36.6616Z" fill="white"/>
</g>
</g>
<defs>
<clipPath id="clip0_9_390">
<rect width="201" height="44.2783" fill="white"/>
</clipPath>
</defs>
</svg>
