<svg width="180" height="120" viewBox="0 0 180 120" fill="none" xmlns="http://www.w3.org/2000/svg">
<rect x="0.5" y="0.5" width="179" height="119" rx="15.5" fill="#0A0A0A"/>
<rect x="0.5" y="0.5" width="179" height="119" rx="15.5" stroke="url(#paint0_linear_501_402)"/>
<path fill-rule="evenodd" clip-rule="evenodd" d="M89.54 86.1005C117.453 86.1005 140.08 74.4885 140.08 60.1655C140.08 45.8424 117.453 34.2305 89.54 34.2305C61.628 34.2305 39 45.8424 39 60.1655C39 74.4885 61.628 86.1005 89.54 86.1005Z" fill="#6E81B6"/>
<path fill-rule="evenodd" clip-rule="evenodd" d="M99.783 68.5477L102.29 55.4828C102.856 52.534 102.385 50.3347 100.892 48.9447C99.4456 47.6 96.9901 46.9459 93.3856 46.9459H89.044L90.2859 40.4728C90.3091 40.3524 90.3058 40.2282 90.276 40.1091C90.2463 39.9901 90.1909 39.8793 90.1139 39.7845C90.0368 39.6897 89.94 39.6134 89.8304 39.561C89.7207 39.5086 89.601 39.4814 89.4798 39.4814H83.4875C83.094 39.4814 82.756 39.7643 82.6808 40.1554L80.0181 54.0254C79.7761 52.4647 79.1796 51.1231 78.225 50.016C76.4674 47.9787 73.6873 46.9459 69.9612 46.9459H58.3471C57.9535 46.9459 57.6156 47.2287 57.5404 47.6192L52.152 75.6947C52.1049 75.9392 52.1679 76.1904 52.3243 76.3823C52.4802 76.5747 52.7124 76.6855 52.9587 76.6855H58.998C59.3915 76.6855 59.7295 76.4027 59.8047 76.011L61.1082 69.2204H65.6038C67.9628 69.2204 69.9453 68.9617 71.4927 68.4518C73.075 67.9308 74.5313 67.0471 75.8147 65.8304C76.8518 64.8656 77.7086 63.7852 78.368 62.6199L77.2918 68.229C77.2448 68.4735 77.3077 68.726 77.4642 68.9166C77.62 69.109 77.8528 69.2198 78.0985 69.2198H84.0907C84.4843 69.2198 84.8223 68.937 84.8974 68.5465L87.8547 53.1355H91.9665C93.7186 53.1355 94.232 53.4889 94.3719 53.6405C94.4985 53.7791 94.7612 54.2674 94.4661 55.8064L92.0826 68.2284C92.0598 68.3489 92.0635 68.4729 92.0934 68.5918C92.1234 68.7106 92.1788 68.8213 92.2559 68.9159C92.3329 69.0105 92.4297 69.0868 92.5391 69.1392C92.6486 69.1916 92.7682 69.2189 92.8893 69.2192H98.9769C99.1674 69.2196 99.352 69.1527 99.4991 69.0302C99.6462 68.9077 99.7466 68.7371 99.783 68.5477ZM72.0018 57.7527C71.6253 59.7113 70.9164 61.108 69.8934 61.9045C68.8544 62.7158 67.1927 63.1267 64.9541 63.1267H62.2773L64.2128 53.0408H67.6737C70.216 53.0408 71.2403 53.591 71.6516 54.052C72.2218 54.6919 72.3428 55.9723 72.0018 57.7527ZM125.024 50.016C123.267 47.9787 120.487 46.9459 116.76 46.9459H105.146C104.752 46.9459 104.415 47.2287 104.34 47.6192L98.9518 75.6947C98.9042 75.9392 98.9671 76.1904 99.1236 76.3823C99.28 76.5741 99.5128 76.6855 99.7573 76.6855H105.797C106.191 76.6855 106.529 76.4027 106.604 76.011L107.907 69.2204H112.404C114.763 69.2204 116.744 68.9617 118.292 68.4518C119.875 67.9308 121.331 67.0471 122.614 65.8304C123.685 64.8347 124.565 63.7152 125.233 62.5066C125.9 61.298 126.379 59.9502 126.658 58.4996C127.344 54.9221 126.795 52.068 125.024 50.016ZM119.144 57.7527C118.767 59.7113 118.058 61.108 117.036 61.9045C115.997 62.7158 114.335 63.1267 112.097 63.1267H109.419L111.354 53.0408H114.816C117.358 53.0408 118.382 53.591 118.794 54.052C119.363 54.6919 119.485 55.9723 119.144 57.7527Z" fill="white"/>
<path fill-rule="evenodd" clip-rule="evenodd" d="M67.5018 52.2092C69.796 52.2092 71.3257 52.638 72.0902 53.4957C72.8542 54.3534 73.0363 55.8263 72.6366 57.9124C72.2186 60.0851 71.4143 61.6359 70.2226 62.5654C69.0309 63.4949 67.217 63.959 64.7822 63.959H61.108L63.3631 52.2092H67.5018ZM52.7861 75.8537H58.8254L60.2586 68.3899H65.4319C67.7145 68.3899 69.5925 68.1467 71.0666 67.6609C72.5407 67.1751 73.8809 66.3614 75.0867 65.2184C76.0987 64.2771 76.9176 63.2375 77.5447 62.1013C78.1711 60.9651 78.616 59.712 78.8794 58.3412C79.5187 55.0131 79.0365 52.4208 77.4341 50.5643C75.8323 48.7071 73.2832 47.7789 69.7893 47.7789H58.1752L52.7861 75.8537ZM83.3151 40.3145H89.3073L87.8748 47.7789H93.2137C96.5713 47.7789 98.8894 48.3717 100.164 49.558C101.439 50.7444 101.821 52.6671 101.311 55.325L98.8044 68.3899H92.7169L95.1003 55.9674C95.371 54.5539 95.272 53.5904 94.8008 53.0761C94.3297 52.5625 93.3268 52.3051 91.794 52.3051H87.0051L83.9183 68.3899H77.926L83.3151 40.3145ZM114.644 52.2092C116.938 52.2092 118.467 52.638 119.232 53.4957C119.996 54.3534 120.178 55.8263 119.778 57.9124C119.361 60.0851 118.557 61.6359 117.365 62.5654C116.174 63.4949 114.359 63.959 111.926 63.959H108.251L110.506 52.2092H114.644ZM99.9271 75.8537H105.967L107.4 68.3899H112.573C114.856 68.3899 116.734 68.1467 118.208 67.6609C119.682 67.1751 121.022 66.3614 122.228 65.2184C123.24 64.2771 124.059 63.2375 124.686 62.1013C125.312 60.9651 125.758 59.712 126.022 58.3412C126.66 55.0131 126.178 52.4208 124.576 50.5643C122.973 48.7071 120.425 47.7789 116.931 47.7789H105.317L99.9271 75.8537Z" fill="black"/>
<defs>
<linearGradient id="paint0_linear_501_402" x1="180" y1="130.286" x2="79.9806" y2="-34.6318" gradientUnits="userSpaceOnUse">
<stop stop-color="#0A0A0A" stop-opacity="0"/>
<stop offset="1" stop-color="#3F3F3F"/>
</linearGradient>
</defs>
</svg>
